<?xml version="1.0" encoding="utf-8"?>
<!-- Generator: Adobe Illustrator 21.1.0, SVG Export Plug-In . SVG Version: 6.00 Build 0)  -->
<svg version="1.1" id="Layer_1" xmlns="http://www.w3.org/2000/svg" xmlns:xlink="http://www.w3.org/1999/xlink" x="0px" y="0px"
	 viewBox="0 0 128 128" style="enable-background:new 0 0 128 128;" xml:space="preserve">
<style type="text/css">
	.st0{fill:#FFFFFF;}
</style>
<path id="Logo" class="st0" d="M70.8,68.92c1.12,0,2.06,0.09,3.12,0.3c5.56,1.1,10.12,5.14,11.98,10.43c0.54,1.7,1.25,4.25,1.7,6
	l0.59,2.31l2.38-0.05C109.51,87.51,125,72.1,125,53c0-28.93-24.13-53-61-53C48.79,0.05,34.37,5.58,23.45,14.48
	C9.14,26.21,0,44.04,0,64c0.01,5.12,0.63,10.27,1.78,15.03c4.2,17.43,15.52,32.08,30.71,40.68c9.19,5.18,20.18,8.25,31.51,8.28
	c2.78,0,5.61-0.19,8.29-0.53c16.67-2.16,31.32-10.73,41.41-23.14l0.66-0.81l-1.28-4.63l-2.47,0.65c-7.66,2.03-15.51,3.08-23.8,3.07
	c-6.63,0-12.95-0.68-19.19-2C62,99.47,57.43,95.38,55.63,90.04c-0.58-1.68-0.84-3.24-0.83-5.11c-0.06-4.17,1.37-7.6,3.95-10.53
	C61.69,71.04,66,68.92,70.8,68.92z M64,6c34.12,0,55,21.92,55,47c0,14.99-11.56,27.3-26.23,28.78c-0.39-1.39-0.81-2.86-1.17-3.98
	c-9.29-29.1-31.41-51.63-59.87-62.03C40.98,9.49,51.89,5.96,64,6z M6,64c0-17.51,7.76-33.21,20.03-43.85
	c23.34,7.48,42.47,23.45,53.64,44.64c-1.45-0.64-2.98-1.13-4.58-1.45c-6.5-1.35-13.39-2.1-20.3-2.1c-17.28,0.03-33.84,4.58-48,12.4
	C6.26,70.51,6,67.33,6,64z M66.39,106.48c6.53,1.37,13.47,2.12,20.42,2.12c5.31,0,10.59-0.44,15.72-1.25
	c-8.1,7.21-18.23,12.17-29.43,13.94c-4.26-5-7.96-10.4-11.05-16.17C63.43,105.71,64.88,106.17,66.39,106.48z M65.94,121.97
	C65.3,121.99,64.65,122,64,122c-9.73,0.03-18.59-2.26-26.63-6.45c2.31-10.17,6.25-19.6,11.58-28.14c0.18,1.57,0.53,3.13,0.99,4.52
	C53.51,102.82,59.02,113.07,65.94,121.97z M54.25,70.43c-10.42,11.68-18.29,26.2-22.27,41.94c-11.43-7.58-20.01-19.1-23.82-32.62
	c13.79-8.04,29.5-12.54,46.63-12.51c0.96,0,1.91,0.01,2.86,0.04C56.41,68.21,55.27,69.26,54.25,70.43z"/>
</svg>
