<?xml version="1.0" encoding="utf-8"?>
<!-- Generator: Adobe Illustrator 24.2.3, SVG Export Plug-In . SVG Version: 6.00 Build 0)  -->
<svg version="1.1" id="overcastCanvas" xmlns="http://www.w3.org/2000/svg" xmlns:xlink="http://www.w3.org/1999/xlink" x="0px"
	 y="0px" viewBox="0 0 800 800" style="enable-background:new 0 0 800 800;" xml:space="preserve">
<style type="text/css">
	.st0{fill-rule:evenodd;clip-rule:evenodd;}
</style>
<g id="overcastCanvas-group">
	<path id="overcastCanvas-bezier" class="st0" d="M400,800C178.3,800,0,621.7,0,400S178.3,0,400,0s400,178.3,400,400
		S621.7,800,400,800z M400,641.7l30-30l-30-115l-30,115L400,641.7z M361.7,640l-15,56.7l35-35L361.7,640z M438.3,640l-20,20l35,35
		L438.3,640z M466.7,743.3L400,676.7l-66.7,66.7c21.7,3.3,43.3,6.7,66.7,6.7C423.3,750,445,748.3,466.7,743.3z M400,50
		C206.7,50,50,206.7,50,400c0,153.3,98.3,283.3,235,330l75-278.3c-16.7-11.7-26.7-31.7-26.7-53.3c0-36.7,30-66.7,66.7-66.7
		s66.7,30,66.7,66.7c0,21.7-10,40-26.7,53.3L515,730c136.7-46.7,235-176.7,235-330C750,206.7,593.3,50,400,50z M628.3,573.3
		c-8.3,10-23.3,13.3-35,5c-11.7-8.3-13.3-23.3-5-33.3c0,0,45-60,45-145s-45-145-45-145c-8.3-10-6.7-25,5-33.3c11.7-8.3,26.7-5,35,5
		c3.3,3.3,55,71.7,55,173.3S631.7,570,628.3,573.3z M506.7,508.3c-10-10-8.3-28.3,1.7-38.3c0,0,25-26.7,25-70s-25-68.3-25-70
		c-10-10-10-26.7-1.7-38.3c10-11.7,25-11.7,35-1.7c1.7,1.7,41.7,43.3,41.7,110s-40,108.3-41.7,110
		C531.7,520,516.7,518.3,506.7,508.3z M293.3,508.3c-10,10-25,11.7-35,1.7c-1.7-3.3-41.7-43.3-41.7-110s40-106.7,41.7-110
		c10-10,26.7-10,35,1.7c10,10,8.3,28.3-1.7,38.3c0,1.7-25,26.7-25,70s25,70,25,70C301.7,480,303.3,496.7,293.3,508.3z M206.7,578.3
		c-11.7,8.3-26.7,5-35-5c-3.3-3.3-55-71.7-55-173.3s51.7-170,55-173.3c8.3-10,23.3-13.3,35-5c11.7,8.3,13.3,23.3,5,33.3
		c0,0-45,60-45,145s45,145,45,145C220,555,216.7,570,206.7,578.3z"/>
</g>
</svg>
