<?xml version="1.0" encoding="utf-8"?>
<!-- Generator: Adobe Illustrator 24.0.1, SVG Export Plug-In . SVG Version: 6.00 Build 0)  -->
<svg version="1.1" xmlns="http://www.w3.org/2000/svg" xmlns:xlink="http://www.w3.org/1999/xlink" x="0px" y="0px"
	 viewBox="0 0 25 25" style="enable-background:new 0 0 25 25;" xml:space="preserve">
<style type="text/css">
	.st0{fill-rule:evenodd;clip-rule:evenodd;fill:#FFFFFF;}
</style>
<g id="DELTEE_BACK">
</g>
<g id="Layer_1">
	<g id="US">
		<g id="XMLID_632_">
			<path class="st0" d="M24.6,21.7c-0.2,0.6-0.8,1.5-1.6,2.1c-0.5,0.4-1,0.7-1.8,0.9s-1.8,0.3-3,0.3H6.9c-1.2,0-2.2-0.1-3-0.3
				c-0.8-0.2-1.3-0.6-1.8-0.9c-0.8-0.6-1.4-1.5-1.6-2.1C0,20.5,0,19,0,18.1l0,0V6.9l0,0C0,6,0,4.6,0.5,3.4c0.2-0.6,0.8-1.5,1.6-2.1
				c0.5-0.4,1-0.7,1.8-0.9C4.7,0.1,5.7,0,6.9,0l0,0h11.2l0,0c1.2,0,2.2,0.1,3,0.3s1.3,0.6,1.8,0.9c0.8,0.6,1.4,1.5,1.6,2.1
				c0.5,1.3,0.5,2.7,0.5,3.6v11.3C25,19,25,20.5,24.6,21.7z M14.3,14.4c-0.4-0.4-1-0.7-1.8-0.7s-1.4,0.3-1.8,0.7
				c-0.2,0.2-0.3,0.4-0.3,0.7c-0.1,0.6,0,1.1,0,1.9c0.1,0.8,0.2,1.8,0.4,2.8c0.1,0.7,0.2,1.1,0.3,1.4c0.1,0.5,0.7,0.9,1.5,0.9
				s1.3-0.4,1.5-0.9c0.1-0.3,0.2-0.7,0.3-1.4c0.2-1,0.3-2.1,0.4-2.8c0.1-0.8,0.1-1.3,0-1.9C14.6,14.8,14.5,14.6,14.3,14.4z
				 M10.4,10.9c0,1.1,0.9,2.1,2.1,2.1c1.1,0,2.1-0.9,2.1-2.1c0-1.1-0.9-2.1-2.1-2.1C11.3,8.9,10.4,9.8,10.4,10.9z M12.5,2.8
				c-4.8,0-8.7,3.9-8.7,8.7c0,3.9,2.4,7.2,5.9,8.5c0.1,0,0.2,0,0.2-0.1c0-0.3-0.1-0.6-0.1-0.9c0-0.1-0.1-0.2-0.2-0.2
				c-2.7-1.2-4.7-4-4.6-7.2C5,7.4,8.4,4,12.6,4c4.3,0,7.8,3.4,7.8,7.7c0,3.2-1.9,5.9-4.6,7.1c-0.1,0-0.2,0.1-0.2,0.2
				c0,0.3-0.1,0.6-0.1,0.9c0,0.1,0.1,0.2,0.2,0.1c3.4-1.2,5.9-4.5,5.9-8.4C21.3,6.7,17.4,2.8,12.5,2.8z M12.3,6.8
				c2.7-0.1,5,2.1,5,4.8c0,1.4-0.6,2.6-1.5,3.5c-0.1,0.1-0.1,0.2-0.1,0.3c0,0.3,0,0.6,0,1c0,0.1,0.1,0.2,0.2,0.1
				c1.6-1.1,2.6-2.9,2.6-4.9c0-3.3-2.8-6.1-6.2-5.9c-3.1,0.1-5.7,2.7-5.7,5.8c0,2.1,1,3.9,2.6,5c0.1,0.1,0.2,0,0.2-0.1
				c0-0.4,0-0.7,0-1c0-0.1,0-0.2-0.1-0.3c-1-0.9-1.6-2.2-1.5-3.6C7.9,9,9.8,6.9,12.3,6.8z"/>
		</g>
	</g>
</g>
</svg>
