<?xml version="1.0" encoding="utf-8"?>
<!-- Generator: Adobe Illustrator 24.2.3, SVG Export Plug-In . SVG Version: 6.00 Build 0)  -->
<svg version="1.1" id="Layer_1" xmlns="http://www.w3.org/2000/svg" xmlns:xlink="http://www.w3.org/1999/xlink" x="0px" y="0px"
	 viewBox="0 0 640 640" style="enable-background:new 0 0 640 640;" xml:space="preserve">
<style type="text/css">
	.st0{fill:#3D4551;enable-background:new    ;}
	.st1{fill:#00BDE3;}
	.st2{fill:#005EA2;}
</style>
<path class="st0" d="M512,128.3c0-17.8-14.4-32.3-32.3-32.3c0,0,0,0,0,0H160.4c-17.9,0-32.4,14.4-32.4,32.3V448h384V128.3z
	 M428.8,228.8L300.5,356c-4.1,4.2-10.9,4.2-15.1,0c0,0-0.1-0.1-0.1-0.1l-74.1-74.7c-4.2-4.1-4.3-10.9-0.1-15.1c0,0,0.1-0.1,0.1-0.1
	l25.5-25.3c4.1-4.2,10.9-4.2,15.1,0c0,0,0.1,0.1,0.1,0.1l41.3,41.6l95.2-94.4c4.1-4.2,10.9-4.2,15.1,0c0,0,0.1,0.1,0.1,0.1
	l25.3,25.5c4.2,4.1,4.2,10.9,0,15.1C428.9,228.7,428.8,228.8,428.8,228.8L428.8,228.8z"/>
<path class="st1" d="M285.3,355.9c4.1,4.2,10.8,4.3,15.1,0.2c0,0,0.1-0.1,0.1-0.1l128.3-127.2c4.2-4.1,4.3-10.8,0.2-15.1
	c0,0-0.1-0.1-0.1-0.1l-25.3-25.5c-4.1-4.2-10.8-4.3-15.1-0.2c0,0-0.1,0.1-0.1,0.1l-95.2,94.4l-41.3-41.6c-4.1-4.2-10.8-4.3-15.1-0.2
	c0,0-0.1,0.1-0.1,0.1L211.2,266c-4.2,4.1-4.3,10.9-0.1,15.1c0,0,0.1,0.1,0.1,0.1L285.3,355.9z"/>
<path class="st2" d="M608,384h-64v64h22.4c5.3,0,9.6,3.6,9.6,8v16c0,4.4-4.3,8-9.6,8H73.6c-5.3,0-9.6-3.6-9.6-8v-16
	c0-4.4,4.3-8,9.6-8H96v-64H32c-17.7,0-32,14.3-32,32v96c0,17.7,14.3,32,32,32h576c17.7,0,32-14.3,32-32v-96
	C640,398.3,625.7,384,608,384z"/>
</svg>
