<?xml version="1.0" encoding="utf-8"?>
<!-- Generator: Adobe Illustrator 24.0.1, SVG Export Plug-In . SVG Version: 6.00 Build 0)  -->
<svg version="1.1" id="Layer_1" xmlns="http://www.w3.org/2000/svg" xmlns:xlink="http://www.w3.org/1999/xlink" x="0px" y="0px"
	 viewBox="0 0 222 222" style="enable-background:new 0 0 222 222;" xml:space="preserve">
<style type="text/css">
	.st0{clip-path:url(#SVGID_2_);}
	.st1{fill-rule:evenodd;clip-rule:evenodd;fill:#F43E37;}
	.st2{fill-rule:evenodd;clip-rule:evenodd;fill:#FFFFFF;}
</style>
<g>
	<defs>
		<rect id="SVGID_1_" x="0.3" width="221.5" height="221.5"/>
	</defs>
	<clipPath id="SVGID_2_">
		<use xlink:href="#SVGID_1_"  style="overflow:visible;"/>
	</clipPath>
	<g class="st0">
		<path class="st1" d="M221.7,110.7c0,61.2-49.6,110.7-110.7,110.7c-61.2,0-110.7-49.6-110.7-110.7C0.3,49.6,49.8,0,111,0
			C172.2,0,221.7,49.6,221.7,110.7z"/>
		<path class="st2" d="M24.9,110.7c0-47.6,38.6-86.1,86.1-86.1c47.6,0,86.1,38.6,86.1,86.1h-21.5c0-35.7-28.9-64.6-64.6-64.6
			c-35.7,0-64.6,28.9-64.6,64.6c0,35.7,28.9,64.6,64.6,64.6v21.5C63.4,196.9,24.9,158.3,24.9,110.7z M111,162.4
			c-28.5,0-51.7-23.1-51.7-51.7c0-28.5,23.1-51.7,51.7-51.7c28.5,0,51.7,23.1,51.7,51.7h-18.8c0-18.2-14.7-32.9-32.9-32.9
			c-18.2,0-32.9,14.7-32.9,32.9c0,18.2,14.7,32.9,32.9,32.9V162.4z"/>
	</g>
</g>
</svg>
