<svg xmlns="http://www.w3.org/2000/svg" xmlns:xlink="http://www.w3.org/1999/xlink" width="74" height="80" viewBox="0 0 74 80">
  <defs>
    <polygon id="flag-white-a" points="36.395 61.398 36.395 .075 .063 .075 .063 61.398 36.395 61.398"/>
  </defs>
  <g fill="none" fill-rule="evenodd">
    <g transform="translate(31.734 13.551)">
      <mask id="flag-white-b" fill="#fff">
        <use xlink:href="#flag-white-a"/>
      </mask>
      <path fill="#FFF" d="M36.3951484,59.7247846 C24.2838507,53.9275398 12.1737348,65.5220294 0.0636189913,59.7247846 C0.0624371707,40.3994416 0.0624371707,21.0740987 0.0636189913,1.74875579 C12.1737348,7.54600059 24.2838507,-4.04848902 36.3951484,1.74875579 L36.3951484,59.7247846 Z" mask="url(#flag-white-b)"/>
    </g>
    <path fill="#CE262F" d="M48.4794168,42.1854403 C48.8977813,42.0875663 49.3173277,41.9873051 49.7356922,41.8870439 C51.3004227,41.5134517 51.4469684,40.5144206 51.4481502,39.3459004 C51.4469684,37.2451899 51.4469684,35.145673 51.4481502,33.0449625 C51.4446048,31.6735327 51.3016045,30.8427972 49.7356922,31.2163895 C49.3173277,31.3166507 48.8977813,31.4169119 48.4794168,31.5147859 L48.4794168,42.1854403 Z M48.4794168,48.3335992 L48.4794168,63.475425 C46.2481395,63.9982154 44.018044,64.4732624 41.7879485,64.6821399 L41.7879485,26.8788998 C44.9587732,26.581697 48.1272343,25.7485743 51.2968772,25.0013898 C56.983798,23.6717355 58.1904369,26.6043751 58.189255,31.223551 L58.189255,38.7932703 C58.1916187,43.4912228 56.3278876,46.4751866 51.6490597,47.5804468 C50.5925121,47.827519 49.5359645,48.0853334 48.4794168,48.3335992 L48.4794168,48.3335992 Z"/>
    <path fill="#E7E7E7" d="M41.823994,64.7153216 C41.823994,64.7153216 41.2614474,67.9368089 31.7974279,73.2757168 L31.7974279,41.9548396 L41.823994,64.7153216 Z"/>
    <path fill="#FFF" d="M41.7906667,64.6496744 C29.528096,58.8524296 17.2643434,70.4469192 5.00059091,64.6496744 L5.00059091,6.6736456 C17.2643434,12.4708904 29.528096,0.876400793 41.7906667,6.6736456 L41.7906667,64.6496744 Z"/>
    <path fill="#CE262F" d="M21.8168346,32.4584346 C22.2529265,32.3581734 22.6890183,32.2543314 23.1251101,32.1516831 C24.4865674,31.8306086 24.9864775,31.207557 24.9864775,29.4291146 L24.9864775,24.2966969 C24.9852957,22.6710334 24.6839315,22.2306004 23.3260196,22.5516749 C22.8237458,22.6710334 22.3202902,22.790392 21.8168346,22.9061698 L21.8168346,32.4584346 Z M21.8168346,54.8656153 C19.5867391,55.3812442 17.3566436,55.8479361 15.1253663,56.05562 L15.1253663,18.2523799 C18.6471918,17.9241439 22.170199,16.9525653 25.6908426,16.1588309 C29.7669419,15.2242534 31.8280371,17.3655458 31.8280371,21.4189622 L31.8280371,27.4656664 C31.8304007,30.6059899 30.1143972,32.1492959 28.8604855,32.9430303 C29.9158513,33.148327 31.7311278,34.2189732 31.7287642,37.0262863 L31.7287642,49.8812022 C31.7264005,51.5080592 32.0313102,52.1919837 32.2806744,52.6312232 L32.2806744,52.8854569 C30.0505789,53.0442038 27.8216652,53.4798625 25.5903879,53.9847492 C25.240569,53.6565132 24.9888412,52.9033607 24.9864775,51.2263731 L24.9864775,40.2000302 C24.9841139,38.4215878 24.5858403,38.0563506 23.2255648,38.3774251 C22.756382,38.4884285 22.2860174,38.599432 21.8168346,38.7080483 L21.8168346,54.8656153 Z"/>
  </g>
</svg>