<?xml version="1.0" encoding="utf-8"?>
<!-- Generator: Adobe Illustrator 24.0.1, SVG Export Plug-In . SVG Version: 6.00 Build 0)  -->
<svg version="1.1" xmlns="http://www.w3.org/2000/svg" xmlns:xlink="http://www.w3.org/1999/xlink" x="0px" y="0px"
	 viewBox="0 0 171 171" style="enable-background:new 0 0 171 171;" xml:space="preserve">
<style type="text/css">
	.st0{fill-rule:evenodd;clip-rule:evenodd;}
</style>
<g id="BACKGROUND_DELETER">
</g>
<g id="Layer_1">
	<g id="Page-1_2_">
		<g id="Logo-Treatment-1_2_" transform="translate(-209.000000, -312.000000)">
			<g id="Group_2_" transform="translate(209.000000, 312.000000)">
				<g id="Logo_2_">
					<path id="Combined-Shape_2_" class="st0" d="M87.9,89.7c-1.2,4.9-4.2,9-8.1,11.1l-3,1.7l5.6,9.4l2.9-1.6
						c4.2-2.3,7.7-5.8,10.2-10.2c2.5-4.5,3.9-9.6,4-15l0-0.1l0-0.1c-0.1-5.3-1.5-10.5-4-14.9c-2.5-4.4-6-8-10.2-10.2l-2.9-1.6
						l-5.6,9.4l3,1.7c4.1,2.2,7.1,6.6,8.2,11.6H51.6c-1.7-3.1-5-5.3-8.8-5.3c-5.5,0-9.9,4.4-9.9,9.8s4.5,9.8,9.9,9.8
						c3.9,0,7.3-2.2,8.9-5.5H87.9z M85.5,170.9c-39.9,0-72.3-38.3-72.3-85.4S45.6,0,85.5,0s72.3,38.3,72.3,85.4
						S125.4,170.9,85.5,170.9z M125.3,91.4c-2.1,20.1-13.3,37.1-28.9,45.4l5.9,9.7c20.3-10.9,34.4-33.9,34.9-60.8
						c-0.5-26.8-14.6-49.9-34.9-60.8l-5.9,9.7C112,43,123.2,60,125.3,80.1l0.2,5.6L125.3,91.4z M92.2,129.4l1.4-0.8
						c7.1-3.9,13.1-10,17.4-17.5c4.4-7.7,6.8-16.7,7-26l0,0l0,0c-0.2-9.3-2.6-18.2-7-26c-4.3-7.6-10.3-13.6-17.4-17.5l-1.4-0.8
						l-5.6,9.5l1.4,0.8c5,2.7,9.4,6.9,12.6,12.1c3.3,5.3,5.4,11.5,6.1,18.1l0.1,3.8l-0.1,3.8c-0.7,6.5-2.8,12.8-6.1,18.1
						c-3.3,5.2-7.6,9.4-12.6,12.1l-1.4,0.8L92.2,129.4z"/>
				</g>
			</g>
		</g>
	</g>
</g>
</svg>
